<svg xmlns="http://www.w3.org/2000/svg" viewBox="0 0 73.68 96.2"><defs><style>.cls-1{fill:#fff;}</style></defs><g id="Layer_2" data-name="Layer 2"><g id="Layer_2-2" data-name="Layer 2"><path class="cls-1" d="M51.79,51.9q-4.49,7.91-9,15.8C40.94,71,39,74.22,37.19,77.5c-.39.68-.59.62-.95,0q-4.68-8-9.39-16a1.49,1.49,0,0,1-.09-.3c-.21-.75.33-.73.78-.73,2.9,0,5.8-.06,8.7,0,.23.62-.32,1-.49,1.45a11.62,11.62,0,0,0-1,2.27A2.22,2.22,0,0,0,36,66.77a2.14,2.14,0,0,0,2.69-1c1.17-2.1,2.32-4.22,3.42-6.36a2.15,2.15,0,0,0-2-3.26H22.64a2.16,2.16,0,0,0-2,3.44c2.73,4.71,5.5,9.4,8.27,14.09q2.93,5,5.88,9.91a2.15,2.15,0,0,0,4,0q9.47-16.49,18.9-33c1.13-2,.14-3.63-2.19-3.63q-23.16,0-46.31,0a1.61,1.61,0,0,1-1.71-1c-.54-1.09-1.22-2.12-1.82-3.18-.51-.89-.29-1.25.77-1.29h60c2.28,0,2.36.13,1.21,2.12L42.7,86.67l-5.09,8.79c-.57,1-1,1-1.54,0q-8.47-14.69-17-29.38-4-6.89-7.93-13.8c-.11-.51.06-.82.62-.83H50.28C50.8,51.49,51.43,51.24,51.79,51.9Z"/><path class="cls-1" d="M17,76.19C11.08,76,6.49,73.31,3.8,68S1.69,57.52,5,52.68c.7-1,.73-1,1.32,0q6.5,11.25,13,22.49c.3.52.36.83-.38.87S17.71,76.14,17,76.19Z"/><path class="cls-1" d="M67.88,51.75a14.35,14.35,0,0,1,3.41,7.3,14.84,14.84,0,0,1-11,16.65,16.05,16.05,0,0,1-5.4.37c-.89-.07-.88-.32-.5-1Q59.7,66,65,56.81C65.94,55.16,66.87,53.5,67.88,51.75Z"/><path class="cls-1" d="M24.92,37.13h-5c-.64,0-.73-.6-1-1q-3.86-6.66-7.65-13.34Q5.86,13.25.41,3.72A2.39,2.39,0,0,1,.85.53a2.23,2.23,0,0,1,3,.08,4.34,4.34,0,0,1,.73,1L17.83,24.76Z"/><path class="cls-1" d="M48.76,37.12c2.13-3.71,4.15-7.25,6.18-10.78L69,1.74c.11-.18.2-.37.32-.55A2.3,2.3,0,0,1,72.54.33a2.33,2.33,0,0,1,.82,3.2c-1.44,2.59-2.93,5.15-4.4,7.72Q61.78,23.78,54.62,36.31a1.41,1.41,0,0,1-1.48.83C51.75,37.09,50.36,37.12,48.76,37.12Z"/></g></g></svg>